:FULLY-SPECIFIED
:FORCE-ALL-JOINTS-BE-3DOF
:DEGREES
34
root 6.57592 16.7724 -27.6814 4.84088 -0.010551 -0.832663
lfemur -16.8588 4.89832 -20.7084
ltibia 35.4689 0 0
lfoot -33.9288 0.369975 0
ltoes 37.1357 0 0
rfemur -37.743 -5.37059 27.8987
rtibia 48.4024 0 0
rfoot -19.207 -2.0791 0
rtoes 8.98754 0 0
lowerback 1.58123 2.02557 -5.84951
upperback -0.754279 2.46749 1.90639
thorax -1.98209 1.34029 5.54771
lowerneck -10.423 -1.92358 1.416
upperneck -1.0302 -2.71637 -0.287331
head 1.40747 -1.35484 -0.428706
lclavicle -8.38909e-14 -2.99839e-14 0
lhumerus -41.7317 -13.415 97.1338
lradius 38.8225 0 0
lwrist 6.02013 0 0
lhand -6.71935 4.06852 0
lfingers 7.12502 0 0
lthumb 19.1152 32.8712 0
rclavicle -8.38909e-14 -2.99839e-14 0
rhumerus -44.2097 -9.67489 -78.9715
rradius 50.6688 0 0
rwrist -1.32808 0 0
rhand -25.1755 -23.3957 0
rfingers 7.12502 0 0
rthumb 1.34205 -53.3606 0
35
root 6.58734 16.7697 -27.6678 4.6931 0.0930793 -0.773622
lfemur -16.7549 4.985 -20.7136
ltibia 35.4769 0 0
lfoot -33.774 0.236519 0
ltoes 37.0809 0 0
rfemur -38.3675 -5.56311 28.196
rtibia 48.8513 0 0
rfoot -18.8289 -1.7994 0
rtoes 8.5495 0 0
lowerback 1.73308 1.97032 -5.88043
upperback -0.692117 2.38155 1.86753
thorax -1.98979 1.29625 5.53309
lowerneck -10.4429 -1.91158 1.39598
upperneck -1.01731 -2.69946 -0.249887
head 1.41595 -1.34524 -0.412798
lclavicle -8.30503e-14 -2.95389e-14 0
lhumerus -41.7228 -13.5126 97.0659
lradius 38.9591 0 0
lwrist 6.13732 0 0
lhand -6.55555 4.09753 0
lfingers 7.12502 0 0
lthumb 19.272 32.8776 0
rclavicle -8.30503e-14 -2.95389e-14 0
rhumerus -44.2197 -9.84947 -78.7701
rradius 50.9809 0 0
rwrist -1.70088 0 0
rhand -25.2151 -23.4295 0
rfingers 7.12502 0 0
rthumb 1.30386 -53.3943 0
36
root 6.59876 16.7671 -27.6542 4.54533 0.19671 -0.714581
lfemur -16.6511 5.07167 -20.7188
ltibia 35.4849 0 0
lfoot -33.6192 0.103062 0
ltoes 37.0262 0 0
rfemur -38.992 -5.75563 28.4933
rtibia 49.3003 0 0
rfoot -18.4508 -1.5197 0
rtoes 8.11145 0 0
lowerback 1.88493 1.91507 -5.91135
upperback -0.629955 2.29562 1.82866
thorax -1.99748 1.25221 5.51848
lowerneck -10.4628 -1.89958 1.37597
upperneck -1.00442 -2.68254 -0.212443
head 1.42444 -1.33565 -0.396889
lclavicle -8.22097e-14 -2.90938e-14 0
lhumerus -41.7138 -13.6101 96.998
lradius 39.0957 0 0
lwrist 6.25451 0 0
lhand -6.39174 4.12655 0
lfingers 7.12502 0 0
lthumb 19.4289 32.8841 0
rclavicle -8.22097e-14 -2.90938e-14 0
rhumerus -44.2298 -10.024 -78.5687
rradius 51.293 0 0
rwrist -2.07367 0 0
rhand -25.2546 -23.4632 0
rfingers 7.12502 0 0
rthumb 1.26566 -53.428 0
37
root 6.61018 16.7644 -27.6406 4.39755 0.30034 -0.65554
lfemur -16.5472 5.15835 -20.724
ltibia 35.4929 0 0
lfoot -33.4644 -0.0303943 0
ltoes 36.9714 0 0
rfemur -39.6164 -5.94815 28.7906
rtibia 49.7492 0 0
rfoot -18.0728 -1.24 0
rtoes 7.6734 0 0
lowerback 2.03679 1.85983 -5.94228
upperback -0.567793 2.20969 1.7898
thorax -2.00518 1.20818 5.50387
lowerneck -10.4827 -1.88759 1.35595
upperneck -0.99154 -2.66562 -0.174999
head 1.43292 -1.32606 -0.380981
lclavicle -8.13692e-14 -2.86488e-14 0
lhumerus -41.7048 -13.7077 96.93
lradius 39.2323 0 0
lwrist 6.3717 0 0
lhand -6.22793 4.15556 0
lfingers 7.12502 0 0
lthumb 19.5857 32.8905 0
rclavicle -8.13692e-14 -2.86488e-14 0
rhumerus -44.2398 -10.1986 -78.3673
rradius 51.6052 0 0
rwrist -2.44647 0 0
rhand -25.2942 -23.4969 0
rfingers 7.12502 0 0
rthumb 1.22747 -53.4617 0
38
root 6.62161 16.7617 -27.6271 4.24977 0.40397 -0.5965
lfemur -16.4433 5.24503 -20.7292
ltibia 35.5009 0 0
lfoot -33.3096 -0.163851 0
ltoes 36.9166 0 0
rfemur -40.2409 -6.14067 29.0879
rtibia 50.1982 0 0
rfoot -17.6947 -0.9603 0
rtoes 7.23535 0 0
lowerback 2.18864 1.80458 -5.9732
upperback -0.505632 2.12376 1.75094
thorax -2.01288 1.16414 5.48926
lowerneck -10.5025 -1.87559 1.33593
upperneck -0.978654 -2.6487 -0.137556
head 1.4414 -1.31647 -0.365073
lclavicle -8.05286e-14 -2.82037e-14 0
lhumerus -41.6959 -13.8052 96.8621
lradius 39.3689 0 0
lwrist 6.48888 0 0
lhand -6.06412 4.18458 0
lfingers 7.12502 0 0
lthumb 19.7426 32.8969 0
rclavicle -8.05286e-14 -2.82037e-14 0
rhumerus -44.2499 -10.3732 -78.166
rradius 51.9173 0 0
rwrist -2.81926 0 0
rhand -25.3337 -23.5306 0
rfingers 7.12502 0 0
rthumb 1.18927 -53.4955 0
39
root 6.63303 16.7591 -27.6135 4.10199 0.5076 -0.537459
lfemur -16.3394 5.3317 -20.7344
ltibia 35.5089 0 0
lfoot -33.1548 -0.297307 0
ltoes 36.8618 0 0
rfemur -40.8653 -6.33319 29.3852
rtibia 50.6472 0 0
rfoot -17.3166 -0.6806 0
rtoes 6.7973 0 0
lowerback 2.3405 1.74934 -6.00413
upperback -0.44347 2.03783 1.71207
thorax -2.02057 1.1201 5.47465
lowerneck -10.5224 -1.8636 1.31592
upperneck -0.965769 -2.63178 -0.100112
head 1.44989 -1.30688 -0.349165
lclavicle -7.9688e-14 -2.77587e-14 0
lhumerus -41.6869 -13.9027 96.7942
lradius 39.5055 0 0
lwrist 6.60607 0 0
lhand -5.90031 4.2136 0
lfingers 7.12502 0 0
lthumb 19.8994 32.9034 0
rclavicle -7.9688e-14 -2.77587e-14 0
rhumerus -44.26 -10.5478 -77.9646
rradius 52.2294 0 0
rwrist -3.19205 0 0
rhand -25.3733 -23.5643 0
rfingers 7.12502 0 0
rthumb 1.15107 -53.5292 0
40
root 6.64445 16.7564 -27.5999 3.95422 0.611231 -0.478418
lfemur -16.2355 5.41838 -20.7396
ltibia 35.5169 0 0
lfoot -33 -0.430764 0
ltoes 36.8071 0 0
rfemur -41.4898 -6.52571 29.6825
rtibia 51.0961 0 0
rfoot -16.9386 -0.4009 0
rtoes 6.35925 0 0
lowerback 2.49235 1.69409 -6.03505
upperback -0.381308 1.9519 1.67321
thorax -2.02827 1.07606 5.46004
lowerneck -10.5423 -1.8516 1.2959
upperneck -0.952884 -2.61487 -0.0626676
head 1.45837 -1.29729 -0.333256
lclavicle -7.88475e-14 -2.73136e-14 0
lhumerus -41.6779 -14.0003 96.7262
lradius 39.6421 0 0
lwrist 6.72326 0 0
lhand -5.7365 4.24261 0
lfingers 7.12502 0 0
lthumb 20.0563 32.9098 0
rclavicle -7.88475e-14 -2.73136e-14 0
rhumerus -44.27 -10.7223 -77.7632
rradius 52.5416 0 0
rwrist -3.56485 0 0
rhand -25.4128 -23.598 0
rfingers 7.12502 0 0
rthumb 1.11288 -53.5629 0
41
root 6.65587 16.7537 -27.5863 3.80644 0.714861 -0.419377
lfemur -16.1316 5.50505 -20.7448
ltibia 35.5249 0 0
lfoot -32.8452 -0.56422 0
ltoes 36.7523 0 0
rfemur -42.1143 -6.71823 29.9798
rtibia 51.5451 0 0
rfoot -16.5605 -0.1212 0
rtoes 5.92121 0 0
lowerback 2.6442 1.63884 -6.06597
upperback -0.319146 1.86596 1.63434
thorax -2.03596 1.03202 5.44542
lowerneck -10.5621 -1.83961 1.27588
upperneck -0.939999 -2.59795 -0.0252237
head 1.46686 -1.28769 -0.317348
lclavicle -7.80069e-14 -2.68686e-14 0
lhumerus -41.669 -14.0978 96.6583
lradius 39.7787 0 0
lwrist 6.84045 0 0
lhand -5.5727 4.27163 0
lfingers 7.12502 0 0
lthumb 20.2131 32.9163 0
rclavicle -7.80069e-14 -2.68686e-14 0
rhumerus -44.2801 -10.8969 -77.5618
rradius 52.8537 0 0
rwrist -3.93764 0 0
rhand -25.4524 -23.6318 0
rfingers 7.12502 0 0
rthumb 1.07468 -53.5966 0
42
root 6.66729 16.7511 -27.5728 3.65866 0.818491 -0.360336
lfemur -16.0277 5.59173 -20.75
ltibia 35.5329 0 0
lfoot -32.6904 -0.697677 0
ltoes 36.6975 0 0
rfemur -42.7387 -6.91075 30.2771
rtibia 51.994 0 0
rfoot -16.1824 0.1585 0
rtoes 5.48316 0 0
lowerback 2.79606 1.5836 -6.0969
upperback -0.256985 1.78003 1.59548
thorax -2.04366 0.987987 5.43081
lowerneck -10.582 -1.82761 1.25587
upperneck -0.927114 -2.58103 0.0122203
head 1.47534 -1.2781 -0.30144
lclavicle -7.71663e-14 -2.64236e-14 0
lhumerus -41.66 -14.1954 96.5904
lradius 39.9152 0 0
lwrist 6.95763 0 0
lhand -5.40889 4.30064 0
lfingers 7.12502 0 0
lthumb 20.3699 32.9227 0
rclavicle -7.71663e-14 -2.64236e-14 0
rhumerus -44.2901 -11.0715 -77.3604
rradius 53.1658 0 0
rwrist -4.31044 0 0
rhand -25.4919 -23.6655 0
rfingers 7.12502 0 0
rthumb 1.03649 -53.6303 0
